<svg xmlns="http://www.w3.org/2000/svg" xmlns:xlink="http://www.w3.org/1999/xlink" width="500" zoomAndPan="magnify" viewBox="0 0 375 374.999991" height="500" preserveAspectRatio="xMidYMid meet" version="1.0"><defs><g/><clipPath id="54b28b0743"><rect x="0" width="209" y="0" height="286"/></clipPath><clipPath id="44db43bf3f"><rect x="0" width="141" y="0" height="178"/></clipPath></defs><g transform="matrix(1, 0, 0, 1, 84, 52)"><g clip-path="url(#54b28b0743)"><g fill="#ffffff" fill-opacity="1"><g transform="translate(99.983714, 95.561501)"><g><path d="M 24.78125 -43.84375 C 23.257812 -42.644531 21.460938 -42.046875 19.390625 -42.046875 L 15.328125 -42.046875 C 14.347656 -42.046875 13.503906 -42.425781 12.796875 -43.1875 C 12.085938 -43.945312 11.734375 -44.816406 11.734375 -45.796875 L 11.734375 -48.25 L 17.765625 -48.890625 L 17.765625 -44.5 C 17.765625 -44.175781 17.875 -43.738281 18.09375 -43.1875 C 18.3125 -42.644531 18.742188 -42.375 19.390625 -42.375 C 20.148438 -42.375 20.554688 -42.671875 20.609375 -43.265625 C 20.671875 -43.867188 20.703125 -44.28125 20.703125 -44.5 L 20.703125 -49.390625 L 28.53125 -50.03125 L 28.53125 -44.828125 C 28.53125 -43.191406 29.234375 -42.375 30.640625 -42.375 C 31.296875 -42.375 31.726562 -42.644531 31.9375 -43.1875 C 32.15625 -43.738281 32.265625 -44.285156 32.265625 -44.828125 L 32.265625 -51.1875 L 41.078125 -52 L 41.078125 -48.734375 C 41.078125 -46.347656 40.285156 -44.632812 38.703125 -43.59375 C 37.128906 -42.5625 35.582031 -42.046875 34.0625 -42.046875 L 29.5 -42.046875 C 27.757812 -42.046875 26.1875 -42.644531 24.78125 -43.84375 Z M 35.046875 -26.890625 C 32.546875 -26.023438 30.070312 -25.046875 27.625 -23.953125 C 25.175781 -22.867188 22.867188 -22.328125 20.703125 -22.328125 C 19.503906 -22.328125 18.304688 -22.488281 17.109375 -22.8125 C 14.609375 -23.570312 12.816406 -24.820312 11.734375 -26.5625 C 10.648438 -28.300781 10 -29.90625 9.78125 -31.375 C 9.5625 -32.84375 9.453125 -33.578125 9.453125 -33.578125 C 10.867188 -32.054688 12.226562 -31.132812 13.53125 -30.8125 C 14.613281 -30.59375 15.78125 -30.617188 17.03125 -30.890625 C 18.28125 -31.160156 19.613281 -31.617188 21.03125 -32.265625 C 23.957031 -33.679688 26.507812 -35.097656 28.6875 -36.515625 C 29.882812 -37.378906 31.132812 -37.972656 32.4375 -38.296875 C 33.738281 -38.628906 34.988281 -38.796875 36.1875 -38.796875 C 39.226562 -38.796875 42 -37.867188 44.5 -36.015625 C 47 -34.171875 48.789062 -31.726562 49.875 -28.6875 C 46.507812 -29.769531 41.566406 -29.171875 35.046875 -26.890625 Z M 35.046875 -26.890625 "/></g></g></g><g fill="#ffffff" fill-opacity="1"><g transform="translate(2.347542, 180.320791)"><g><path d="M 140.34375 -1.46875 L 159.5625 -1.46875 L 159.5625 0 L 63.890625 0 C 59.109375 0 53.890625 -0.40625 48.234375 -1.21875 C 42.585938 -2.03125 37.15625 -3.414062 31.9375 -5.375 C 26.726562 -7.332031 22.4375 -9.992188 19.0625 -13.359375 C 13.632812 -18.898438 9.78125 -25.09375 7.5 -31.9375 C 5.21875 -38.789062 4.835938 -45.992188 6.359375 -53.546875 C 7.878906 -61.097656 11.460938 -68.566406 17.109375 -75.953125 C 18.410156 -77.585938 19.550781 -78.835938 20.53125 -79.703125 C 25.96875 -85.140625 32.160156 -89.429688 39.109375 -92.578125 C 46.066406 -95.734375 53.1875 -97.3125 60.46875 -97.3125 C 66.332031 -97.3125 72.117188 -96.171875 77.828125 -93.890625 C 83.535156 -91.609375 88.890625 -87.96875 93.890625 -82.96875 C 98.773438 -78.1875 102.164062 -72.585938 104.0625 -66.171875 C 105.96875 -59.765625 106.238281 -53.300781 104.875 -46.78125 C 103.519531 -40.257812 100.289062 -34.445312 95.1875 -29.34375 C 91.382812 -25.539062 86.898438 -22.550781 81.734375 -20.375 C 76.578125 -18.195312 71.28125 -17.109375 65.84375 -17.109375 C 62.039062 -17.109375 58.457031 -17.65625 55.09375 -18.75 C 59 -19.507812 62.71875 -20.863281 66.25 -22.8125 C 69.78125 -24.769531 72.960938 -27.109375 75.796875 -29.828125 C 80.460938 -34.503906 83.851562 -40.046875 85.96875 -46.453125 C 88.09375 -52.859375 88.503906 -59.484375 87.203125 -66.328125 C 85.898438 -73.179688 82.3125 -79.488281 76.4375 -85.25 C 74.15625 -87.53125 71.085938 -89.484375 67.234375 -91.109375 C 63.378906 -92.742188 59.113281 -93.5625 54.4375 -93.5625 C 49.4375 -93.5625 44.765625 -92.472656 40.421875 -90.296875 C 36.078125 -88.117188 32.242188 -85.210938 28.921875 -81.578125 C 25.609375 -77.941406 23.03125 -73.835938 21.1875 -69.265625 C 19.34375 -64.703125 18.421875 -60.03125 18.421875 -55.25 C 18.421875 -46.34375 20.019531 -38.546875 23.21875 -31.859375 C 26.425781 -25.179688 30.582031 -19.585938 35.6875 -15.078125 C 40.800781 -10.566406 46.238281 -7.171875 52 -4.890625 C 57.757812 -2.609375 63.242188 -1.46875 68.453125 -1.46875 L 87.03125 -1.46875 C 91.488281 -1.46875 95.507812 -2.550781 99.09375 -4.71875 C 102.6875 -6.894531 105.539062 -9.773438 107.65625 -13.359375 C 109.769531 -16.953125 110.828125 -20.921875 110.828125 -25.265625 L 110.828125 -34.234375 L 140.34375 -37.484375 Z M 98.28125 21.03125 C 98.28125 24.613281 97.03125 27.65625 94.53125 30.15625 C 92.03125 32.65625 89.046875 33.90625 85.578125 33.90625 C 81.984375 33.90625 78.9375 32.65625 76.4375 30.15625 C 73.9375 27.65625 72.6875 24.613281 72.6875 21.03125 C 72.6875 17.550781 73.9375 14.5625 76.4375 12.0625 C 78.9375 9.5625 81.984375 8.3125 85.578125 8.3125 C 89.046875 8.3125 92.03125 9.5625 94.53125 12.0625 C 97.03125 14.5625 98.28125 17.550781 98.28125 21.03125 Z M 98.28125 21.03125 "/></g></g></g><g fill="#ffffff" fill-opacity="1"><g transform="translate(160.60818, 180.320791)"><g><path d="M 40.90625 -11.90625 C 40.363281 -8.53125 38.734375 -5.703125 36.015625 -3.421875 C 33.304688 -1.140625 30.210938 0 26.734375 0 L -1.625 0 L -1.625 -1.46875 L -0.15625 -1.46875 C 2.550781 -1.46875 4.9375 -2.335938 7 -4.078125 C 9.070312 -5.816406 10.320312 -7.988281 10.75 -10.59375 L 10.75 -81.328125 L 40.90625 -84.59375 Z M 40.90625 -11.90625 "/></g></g></g></g></g><g transform="matrix(1, 0, 0, 1, 72, 123)"><g clip-path="url(#44db43bf3f)"><g fill="#ffffff" fill-opacity="1"><g transform="translate(74.116723, 118.565707)"><g><path d="M 8.234375 -26.234375 C 9.859375 -25.753906 11.03125 -24.820312 11.75 -23.4375 C 12.46875 -22.0625 12.6875 -20.609375 12.40625 -19.078125 C 12.132812 -17.546875 11.300781 -16.273438 9.90625 -15.265625 L -8.15625 -21.359375 L -8.109375 -40.328125 C -6.710938 -41.335938 -5.242188 -41.726562 -3.703125 -41.5 C -2.160156 -41.269531 -0.863281 -40.613281 0.1875 -39.53125 C 1.238281 -38.445312 1.757812 -37.023438 1.75 -35.265625 L 1.671875 -28.4375 Z M 8.234375 -26.234375 "/></g></g></g></g></g></svg>